<svg width="20" height="20" viewBox="0 0 20 20" fill="none" xmlns="http://www.w3.org/2000/svg">
<path fill-rule="evenodd" clip-rule="evenodd" d="M9.00175 2.53215C8.57008 2.71069 8.05051 2.98266 7.30908 3.37175L5.64241 4.24638C4.73434 4.72291 4.09636 5.05862 3.61968 5.37695C3.15614 5.68652 2.88831 5.95249 2.70314 6.26694C2.51693 6.58317 2.4082 6.95886 2.35096 7.53984C2.29245 8.13385 2.29175 8.88702 2.29175 9.95127V10.0488C2.29175 11.113 2.29245 11.8662 2.35096 12.4602C2.4082 13.0412 2.51693 13.4169 2.70314 13.7331C2.88831 14.0475 3.15614 14.3135 3.61968 14.6231C4.09636 14.9414 4.73434 15.2771 5.64241 15.7537L7.30908 16.6283C8.05051 17.0174 8.57008 17.2894 9.00175 17.4679C9.42191 17.6417 9.71716 17.7084 10.0001 17.7084C10.283 17.7084 10.5782 17.6417 10.9984 17.4679C11.4301 17.2894 11.9497 17.0174 12.6911 16.6283L14.3577 15.7537C15.2658 15.2771 15.9038 14.9414 16.3805 14.6231C16.844 14.3135 17.1118 14.0475 17.297 13.7331C17.5607 13.2853 17.6652 12.7285 17.6957 11.649C17.7054 11.304 17.993 11.0322 18.338 11.0419C18.6831 11.0517 18.9549 11.3393 18.9452 11.6844C18.9139 12.79 18.8105 13.6264 18.3742 14.3674C18.0615 14.8984 17.6322 15.2904 17.0747 15.6626C16.5366 16.0219 15.8397 16.3876 14.9689 16.8446L13.246 17.7488C12.5365 18.1211 11.9667 18.4201 11.4761 18.623C10.9681 18.8331 10.504 18.9584 10.0001 18.9584C9.49616 18.9584 9.03208 18.8331 8.52408 18.623C8.03347 18.4201 7.46367 18.1211 6.75413 17.7488L5.03119 16.8446C4.1604 16.3876 3.46354 16.0219 2.92547 15.6626C2.36803 15.2904 1.93868 14.8984 1.62601 14.3674C1.3144 13.8382 1.17421 13.2652 1.10699 12.5828C1.04173 11.9204 1.04174 11.1057 1.04175 10.0812V9.91885C1.04174 8.89435 1.04173 8.07967 1.10699 7.41729C1.17421 6.73489 1.3144 6.16186 1.62601 5.63267C1.93868 5.1017 2.36803 4.70972 2.92547 4.33745C3.46355 3.97811 4.16043 3.61241 5.03124 3.15545L6.75416 2.2513C7.46369 1.87895 8.03348 1.57992 8.52408 1.37704C9.03208 1.16693 9.49616 1.04169 10.0001 1.04169C10.504 1.04169 10.9681 1.16693 11.4761 1.37704C11.9667 1.57993 12.5365 1.87895 13.246 2.2513L14.9689 3.15543C15.8397 3.6124 16.5366 3.9781 17.0747 4.33745C17.6322 4.70972 18.0615 5.1017 18.3742 5.63267C18.8105 6.37368 18.9139 7.21004 18.9452 8.31571C18.9549 8.66077 18.6831 8.94835 18.338 8.9581C17.993 8.96785 17.7054 8.69602 17.6957 8.35102C17.6652 7.27155 17.5607 6.71479 17.297 6.26694C17.1118 5.95249 16.844 5.68652 16.3805 5.37695C15.9038 5.05862 15.2658 4.72292 14.3577 4.24638L12.6911 3.37175C11.9497 2.98266 11.4301 2.71069 10.9984 2.53215C10.5782 2.35839 10.283 2.29169 10.0001 2.29169C9.71716 2.29169 9.42191 2.35839 9.00175 2.53215Z" fill="#8B8B8B"/>
<path fill-rule="evenodd" clip-rule="evenodd" d="M5.69682 3.45891C5.85758 3.15346 6.23553 3.03616 6.54098 3.19693L14.1739 7.21424L17.2204 5.69099C17.5291 5.53662 17.9046 5.66176 18.0589 5.9705C18.2133 6.27923 18.0881 6.65466 17.7794 6.80902L14.7916 8.30295V10.8333C14.7916 11.1785 14.5117 11.4583 14.1666 11.4583C13.8214 11.4583 13.5416 11.1785 13.5416 10.8333V8.92792L10.6249 10.3863V17.9167C10.6249 18.2618 10.3451 18.5417 9.99989 18.5417C9.65472 18.5417 9.37489 18.2618 9.37489 17.9167V10.3863L2.22038 6.80902C1.91165 6.65466 1.78651 6.27923 1.94087 5.9705C2.09524 5.66176 2.47067 5.53662 2.7794 5.69099L9.99989 9.30126L12.7976 7.90242L5.9588 4.30308C5.65335 4.14231 5.53605 3.76437 5.69682 3.45891Z" fill="#8B8B8B"/>
</svg>
