<svg width="10" height="10" viewBox="0 0 10 10" fill="none" xmlns="http://www.w3.org/2000/svg">
<path d="M5 9C7.20914 9 9 7.20914 9 5C9 2.79086 7.20914 1 5 1C2.79086 1 1 2.79086 1 5C1 7.20914 2.79086 9 5 9Z" fill="#33CC99"/>
<path d="M4.47019 6.9663C4.36779 6.9663 4.26539 6.9273 4.18739 6.8491L2.67419 5.3359C2.51799 5.1797 2.51799 4.9265 2.67419 4.7703C2.83039 4.6141 3.08359 4.6141 3.23979 4.7703L4.47019 6.0007L6.76019 3.7109C6.91639 3.5547 7.16959 3.5547 7.32579 3.7109C7.48199 3.8671 7.48199 4.1203 7.32579 4.2765L4.75299 6.8491C4.67499 6.9273 4.57259 6.9663 4.47019 6.9663Z" fill="white"/>
<path d="M8.29999 5.20004C8.18959 5.20004 8.09999 5.11044 8.09999 5.00004C8.09999 4.08544 7.69879 3.22184 6.99939 2.63084C6.91499 2.55964 6.90439 2.43344 6.97579 2.34904C7.04699 2.26464 7.17319 2.25404 7.25759 2.32524C8.04719 2.99244 8.49999 3.96744 8.49999 5.00004C8.49999 5.11044 8.41039 5.20004 8.29999 5.20004Z" fill="#3EEDAE"/>
<path d="M8.21999 5.83994C8.33045 5.83994 8.41999 5.7504 8.41999 5.63994C8.41999 5.52948 8.33045 5.43994 8.21999 5.43994C8.10953 5.43994 8.01999 5.52948 8.01999 5.63994C8.01999 5.7504 8.10953 5.83994 8.21999 5.83994Z" fill="#3EEDAE"/>
</svg>
