<svg width="32" height="32" viewBox="0 0 32 32" fill="none" xmlns="http://www.w3.org/2000/svg">
<path d="M24.2 12.193L23.8 24.3C23.766 25.3369 23.3292 26.3197 22.5823 27.0398C21.8355 27.7599 20.8375 28.1607 19.8 28.157H12.2C11.1632 28.1607 10.1658 27.7605 9.41907 27.0412C8.67236 26.322 8.23512 25.3402 8.20003 24.304L7.80003 12.193C7.79128 11.9278 7.88824 11.6699 8.06959 11.4762C8.25093 11.2825 8.50181 11.1687 8.76703 11.16C9.03224 11.1512 9.29007 11.2482 9.4838 11.4295C9.67752 11.6109 9.79128 11.8618 9.80003 12.127L10.2 24.237C10.2199 24.7539 10.4394 25.2431 10.8124 25.6017C11.1853 25.9602 11.6827 26.1604 12.2 26.16H19.8C20.3181 26.1603 20.816 25.9597 21.189 25.6002C21.5621 25.2408 21.7811 24.7507 21.8 24.233L22.2 12.127C22.2088 11.8618 22.3225 11.6109 22.5163 11.4295C22.71 11.2482 22.9678 11.1512 23.233 11.16C23.4982 11.1687 23.7491 11.2825 23.9305 11.4762C24.1118 11.6699 24.2088 11.9278 24.2 12.193ZM25.523 8.16397C25.523 8.42919 25.4177 8.68354 25.2301 8.87108C25.0426 9.05861 24.7882 9.16397 24.523 9.16397H7.47803C7.21281 9.16397 6.95846 9.05861 6.77092 8.87108C6.58338 8.68354 6.47803 8.42919 6.47803 8.16397C6.47803 7.89875 6.58338 7.6444 6.77092 7.45686C6.95846 7.26933 7.21281 7.16397 7.47803 7.16397H10.578C10.8949 7.16482 11.2007 7.04776 11.436 6.83557C11.6713 6.62337 11.8192 6.33122 11.851 6.01597C11.9248 5.27646 12.2713 4.5909 12.8229 4.09288C13.3746 3.59485 14.0918 3.32004 14.835 3.32197H17.165C17.9082 3.32004 18.6255 3.59485 19.1771 4.09288C19.7288 4.5909 20.0752 5.27646 20.149 6.01597C20.1808 6.33122 20.3287 6.62337 20.564 6.83557C20.7993 7.04776 21.1052 7.16482 21.422 7.16397H24.522C24.7872 7.16397 25.0416 7.26933 25.2291 7.45686C25.4167 7.6444 25.522 7.89875 25.522 8.16397H25.523ZM13.587 7.16397H18.415C18.2836 6.86371 18.1977 6.54555 18.16 6.21997C18.1353 5.97348 18.0199 5.74496 17.8362 5.57868C17.6526 5.41241 17.4138 5.32022 17.166 5.31997H14.836C14.5883 5.32022 14.3495 5.41241 14.1658 5.57868C13.9822 5.74496 13.8668 5.97348 13.842 6.21997C13.8041 6.54561 13.7188 6.86377 13.587 7.16397ZM14.594 22.315V13.8C14.594 13.5348 14.4887 13.2804 14.3011 13.0929C14.1136 12.9053 13.8592 12.8 13.594 12.8C13.3288 12.8 13.0745 12.9053 12.8869 13.0929C12.6994 13.2804 12.594 13.5348 12.594 13.8V22.319C12.594 22.5842 12.6994 22.8385 12.8869 23.0261C13.0745 23.2136 13.3288 23.319 13.594 23.319C13.8592 23.319 14.1136 23.2136 14.3011 23.0261C14.4887 22.8385 14.594 22.5842 14.594 22.319V22.315ZM19.408 22.315V13.8C19.408 13.5348 19.3027 13.2804 19.1151 13.0929C18.9276 12.9053 18.6732 12.8 18.408 12.8C18.1428 12.8 17.8885 12.9053 17.7009 13.0929C17.5134 13.2804 17.408 13.5348 17.408 13.8V22.319C17.408 22.5842 17.5134 22.8385 17.7009 23.0261C17.8885 23.2136 18.1428 23.319 18.408 23.319C18.6732 23.319 18.9276 23.2136 19.1151 23.0261C19.3027 22.8385 19.408 22.5842 19.408 22.319V22.315Z" fill="#ABABAB"/>
</svg>
