<svg width="19" height="19" viewBox="0 0 19 19" fill="none" xmlns="http://www.w3.org/2000/svg">
<g clip-path="url(#clip0_177_485)">
<path d="M16.526 4.8827H12.0189M4.50711 4.8827H1.50238M16.526 13.1457H13.5213M6.00948 13.1457H1.50238M7.51184 7.51183C7.85711 7.51183 8.19899 7.44383 8.51797 7.3117C8.83695 7.17958 9.12679 6.98592 9.37093 6.74178C9.61506 6.49764 9.80873 6.20781 9.94085 5.88882C10.073 5.56984 10.141 5.22796 10.141 4.8827C10.141 4.53743 10.073 4.19555 9.94085 3.87657C9.80873 3.55758 9.61506 3.26775 9.37093 3.02361C9.12679 2.77947 8.83695 2.58581 8.51797 2.45369C8.19899 2.32156 7.85711 2.25356 7.51184 2.25356C6.81455 2.25356 6.14582 2.53055 5.65276 3.02361C5.1597 3.51667 4.8827 4.1854 4.8827 4.8827C4.8827 5.57999 5.1597 6.24872 5.65276 6.74178C6.14582 7.23484 6.81455 7.51183 7.51184 7.51183V7.51183ZM10.5166 15.7748C11.2139 15.7748 11.8826 15.4978 12.3757 15.0048C12.8687 14.5117 13.1457 13.843 13.1457 13.1457C13.1457 12.4484 12.8687 11.7797 12.3757 11.2866C11.8826 10.7936 11.2139 10.5166 10.5166 10.5166C9.81928 10.5166 9.15055 10.7936 8.65749 11.2866C8.16443 11.7797 7.88744 12.4484 7.88744 13.1457C7.88744 13.843 8.16443 14.5117 8.65749 15.0048C9.15055 15.4978 9.81928 15.7748 10.5166 15.7748V15.7748Z" stroke="#3D3D3D" stroke-width="2.5" stroke-miterlimit="10" stroke-linecap="round" stroke-linejoin="round"/>
</g>
<defs>
<clipPath id="clip0_177_485">
<rect width="18.0284" height="18.0284" fill="white"/>
</clipPath>
</defs>
</svg>
