<svg width="24" height="24" viewBox="0 0 24 24" fill="none" xmlns="http://www.w3.org/2000/svg">
<path d="M20.7807 2.20926L19.36 3.62994L13.0153 2.60652C11.7423 2.40353 10.433 2.82345 9.51953 3.73689L3.18199 10.0748C2.41957 10.8368 2 11.85 2 12.9277C2 14.0054 2.41957 15.019 3.18199 15.781L8.21896 20.818C8.98103 21.5804 9.99456 22 11.0723 22C12.15 22 13.1632 21.5804 13.9252 20.818L20.2631 14.4805C21.1765 13.567 21.5993 12.2602 21.3935 10.9847L20.3701 4.63999L21.7907 3.21931C22.0698 2.94029 22.0698 2.48828 21.7907 2.20926C21.5117 1.93025 21.0597 1.93025 20.7807 2.20926ZM19.2531 13.4704L12.9152 19.808C11.9302 20.7929 10.2139 20.7929 9.229 19.808L4.19203 14.771C3.69957 14.2785 3.42857 13.6239 3.42857 12.9277C3.42857 12.2316 3.69957 11.5773 4.19203 11.0848L10.5296 4.74693C11.0213 4.25516 11.6892 3.98382 12.3749 3.98382C12.5123 3.98382 12.6505 3.99463 12.7879 4.01695L18.114 4.87593L16.6394 6.35059L16.3377 6.0489C16.0587 5.76988 15.6067 5.76988 15.3276 6.0489C15.0486 6.32792 15.0486 6.77992 15.3276 7.05894L16.9411 8.67236C17.0806 8.81187 17.2633 8.88163 17.4461 8.88163C17.6288 8.88163 17.8116 8.81187 17.9511 8.67236C18.2301 8.39335 18.2301 7.94134 17.9511 7.66232L17.6494 7.36063L19.1241 5.88598L19.983 11.2121C20.1159 12.0363 19.8432 12.8803 19.2531 13.4704Z" fill="#8B8B8B"/>
</svg>
