<svg width="24" height="24" viewBox="0 0 24 24" fill="none" xmlns="http://www.w3.org/2000/svg">
<path d="M15.7054 6.525C15.7054 6.73125 15.6913 6.9375 15.6655 7.14141C15.6773 7.05938 15.689 6.975 15.6984 6.89297C15.6421 7.30078 15.5343 7.69688 15.3773 8.07656C15.4077 8.00156 15.4405 7.92656 15.471 7.85156C15.314 8.22188 15.1124 8.56875 14.8663 8.8875L15.014 8.69766C14.7702 9.01172 14.4866 9.29531 14.1726 9.53906L14.3624 9.39141C14.0437 9.63516 13.6968 9.83906 13.3265 9.99609C13.4015 9.96563 13.4765 9.93281 13.5515 9.90234C13.1718 10.0594 12.7757 10.1672 12.3679 10.2234C12.4499 10.2117 12.5343 10.2 12.6163 10.1906C12.2062 10.2445 11.7937 10.2445 11.3835 10.1906C11.4655 10.2023 11.5499 10.2141 11.6319 10.2234C11.2241 10.1672 10.828 10.0594 10.4484 9.90234C10.5234 9.93281 10.5984 9.96563 10.6734 9.99609C10.303 9.83906 9.95616 9.6375 9.63741 9.39141L9.82726 9.53906C9.5132 9.29531 9.2296 9.01172 8.98585 8.69766L9.13351 8.8875C8.88976 8.56875 8.68585 8.22188 8.52882 7.85156C8.55929 7.92656 8.5921 8.00156 8.62257 8.07656C8.46554 7.69688 8.35773 7.30078 8.30148 6.89297C8.3132 6.975 8.32491 7.05938 8.33429 7.14141C8.28038 6.73125 8.28038 6.31875 8.33429 5.9086C8.32257 5.99063 8.31085 6.075 8.30148 6.15703C8.35773 5.74922 8.46554 5.35313 8.62257 4.97344C8.5921 5.04844 8.55929 5.12344 8.52882 5.19844C8.68585 4.82813 8.88741 4.48125 9.13351 4.1625L8.98585 4.35234C9.2296 4.03828 9.5132 3.75469 9.82726 3.51094L9.63741 3.6586C9.95616 3.41485 10.303 3.21094 10.6734 3.05391C10.5984 3.08438 10.5234 3.11719 10.4484 3.14766C10.828 2.99063 11.2241 2.88281 11.6319 2.82656C11.5499 2.83828 11.4655 2.85 11.3835 2.85938C11.7937 2.80547 12.2062 2.80547 12.6163 2.85938C12.5343 2.84766 12.4499 2.83594 12.3679 2.82656C12.7757 2.88281 13.1718 2.99063 13.5515 3.14766C13.4765 3.11719 13.4015 3.08438 13.3265 3.05391C13.6968 3.21094 14.0437 3.4125 14.3624 3.6586L14.1726 3.51094C14.4866 3.75469 14.7702 4.03828 15.014 4.35234L14.8663 4.1625C15.1101 4.48125 15.314 4.82813 15.471 5.19844C15.4405 5.12344 15.4077 5.04844 15.3773 4.97344C15.5343 5.35313 15.6421 5.74922 15.6984 6.15703C15.6866 6.075 15.6749 5.99063 15.6655 5.9086C15.6913 6.1125 15.703 6.31875 15.7054 6.525C15.7077 7.01484 16.1343 7.48594 16.6429 7.4625C17.1491 7.43906 17.5827 7.05 17.5804 6.525C17.5757 5.40234 17.2382 4.25391 16.5773 3.33985C16.3991 3.09375 16.2093 2.85235 15.9984 2.63438C15.7851 2.41406 15.5507 2.22422 15.3069 2.03906C14.864 1.70156 14.3694 1.45313 13.8444 1.26094C11.728 0.485158 9.1757 1.17656 7.74366 2.92031C7.54679 3.15938 7.35929 3.40781 7.19991 3.675C7.04054 3.93985 6.91632 4.2211 6.80148 4.50703C6.58585 5.03672 6.4757 5.59922 6.43116 6.16875C6.34445 7.28438 6.63507 8.44922 7.21632 9.40547C7.77648 10.3289 8.62257 11.1211 9.61163 11.5688C9.90226 11.7 10.1999 11.8219 10.5093 11.9086C10.8163 11.993 11.128 12.0398 11.4444 12.0773C12.021 12.1453 12.6093 12.0984 13.1788 11.9836C15.3421 11.543 17.1538 9.67969 17.489 7.49297C17.5382 7.17422 17.5757 6.85547 17.5757 6.53203C17.578 6.04219 17.1421 5.57109 16.6382 5.59453C16.1319 5.61094 15.7054 6 15.7054 6.525ZM18.8155 21.1805H6.78976C6.25773 21.1805 5.7257 21.1852 5.19366 21.1805C5.13507 21.1805 5.07648 21.1758 5.02023 21.1688C5.10226 21.1805 5.18663 21.1922 5.26866 21.2016C5.17491 21.1875 5.08585 21.1617 4.99913 21.1266C5.07413 21.157 5.14913 21.1898 5.22413 21.2203C5.13038 21.1805 5.04366 21.1289 4.96163 21.0656L5.15148 21.2133C5.08116 21.1547 5.01554 21.0914 4.95929 21.0211L5.10695 21.2109C5.04366 21.1289 4.99445 21.0422 4.95226 20.9484C4.98273 21.0234 5.01554 21.0984 5.04601 21.1734C5.01085 21.0867 4.98741 20.9953 4.97101 20.9039C4.98273 20.9859 4.99445 21.0703 5.00382 21.1523C4.96632 20.8688 4.9921 20.5688 4.9921 20.2828V19.2797C4.9921 19.0289 5.00616 18.7805 5.03898 18.532C5.02726 18.6141 5.01554 18.6984 5.00616 18.7805C5.07179 18.3 5.19835 17.8289 5.3882 17.3813C5.35773 17.4563 5.32491 17.5313 5.29445 17.6063C5.47726 17.1797 5.71163 16.7789 5.99523 16.4109L5.84757 16.6008C6.13116 16.2375 6.45695 15.9094 6.82257 15.6258L6.63273 15.7734C7.0007 15.4898 7.40148 15.2555 7.82804 15.0727C7.75304 15.1031 7.67804 15.1359 7.60304 15.1664C8.0507 14.9789 8.51945 14.85 9.00226 14.7844C8.92023 14.7961 8.83585 14.8078 8.75382 14.8172C9.1007 14.7727 9.44523 14.7703 9.79445 14.7703H14.0835C14.4702 14.7703 14.8546 14.768 15.2413 14.8172C15.1593 14.8055 15.0749 14.7938 14.9929 14.7844C15.4734 14.85 15.9444 14.9766 16.3921 15.1664C16.3171 15.1359 16.2421 15.1031 16.1671 15.0727C16.5937 15.2555 16.9944 15.4898 17.3624 15.7734L17.1726 15.6258C17.5359 15.9094 17.864 16.2352 18.1476 16.6008L17.9999 16.4109C18.2835 16.7789 18.5179 17.1797 18.7007 17.6063C18.6702 17.5313 18.6374 17.4563 18.6069 17.3813C18.7944 17.8289 18.9234 18.2977 18.989 18.7805C18.9773 18.6984 18.9655 18.6141 18.9562 18.532C19.0007 18.8859 19.003 19.2375 19.003 19.5938V20.7539C19.003 20.8875 19.0077 21.0211 18.9913 21.1523C19.003 21.0703 19.0148 20.9859 19.0241 20.9039C19.0101 20.9977 18.9843 21.0867 18.9491 21.1734C18.9796 21.0984 19.0124 21.0234 19.0429 20.9484C19.003 21.0422 18.9515 21.1289 18.8882 21.2109L19.0359 21.0211C18.9773 21.0914 18.914 21.157 18.8437 21.2133L19.0335 21.0656C18.9515 21.1289 18.8648 21.1781 18.771 21.2203C18.846 21.1898 18.921 21.157 18.996 21.1266C18.9093 21.1617 18.8179 21.1852 18.7265 21.2016C18.8085 21.1898 18.8929 21.1781 18.9749 21.1688C18.9234 21.1758 18.8694 21.1781 18.8155 21.1805C18.5741 21.1828 18.3257 21.2836 18.1523 21.4547C17.9905 21.6164 17.8663 21.8836 17.878 22.118C17.9015 22.6195 18.2905 23.0625 18.8155 23.0555C19.7273 23.0414 20.5288 22.4461 20.796 21.5719C20.9015 21.225 20.878 20.8523 20.878 20.4961C20.878 19.6805 20.9038 18.8719 20.7632 18.0633C20.5569 16.8797 19.9616 15.7664 19.146 14.8922C18.3304 14.018 17.2335 13.3758 16.0734 13.0898C15.4077 12.9258 14.7374 12.9 14.0577 12.9H9.89991C9.20382 12.9 8.51241 12.9328 7.83507 13.1133C6.68429 13.418 5.60148 14.0672 4.80226 14.9484C3.99601 15.8367 3.41241 16.9523 3.22257 18.143C3.09601 18.9422 3.12179 19.7438 3.12179 20.55C3.12179 20.9203 3.1007 21.307 3.23429 21.6609C3.40773 22.1156 3.68429 22.4742 4.08976 22.7438C4.40616 22.9523 4.80695 23.0531 5.18195 23.0578C5.36476 23.0602 5.54757 23.0578 5.73038 23.0578H18.8179C19.3077 23.0578 19.7788 22.6266 19.7554 22.1203C19.7319 21.6094 19.3429 21.1805 18.8155 21.1805Z" fill="black"/>
</svg>
