<svg width="18" height="18" viewBox="0 0 18 18" fill="none" xmlns="http://www.w3.org/2000/svg">
<path d="M1.8 15.3V3.75502C0.7515 4.12425 0 5.12325 0 6.3V15.3C0 16.7917 1.20825 18 2.7 18H11.7C12.8767 18 13.8757 17.2485 14.245 16.2H2.7C2.20275 16.2 1.8 15.7972 1.8 15.3ZM15.3 0H6.3C4.80825 0 3.6 1.20825 3.6 2.7V11.7C3.6 13.1917 4.80825 14.4 6.3 14.4H15.3C16.7917 14.4 18 13.1917 18 11.7V2.7C18 1.20825 16.7917 0 15.3 0ZM16.2 11.7C16.2 12.1972 15.7972 12.6 15.3 12.6H6.3C5.80275 12.6 5.4 12.1972 5.4 11.7V2.7C5.4 2.20275 5.80275 1.8 6.3 1.8H15.3C15.7972 1.8 16.2 2.20275 16.2 2.7V11.7Z" fill="#FCFEFF"/>
</svg>
